<?xml version="1.0" encoding="UTF-8"?>
<svg version="1.1" xmlns="http://www.w3.org/2000/svg" width="1200" height="609">
<path d="M0 0 C396 0 792 0 1200 0 C1200 200.97 1200 401.94 1200 609 C804 609 408 609 0 609 C0 408.03 0 207.06 0 0 Z " fill="#E70120" transform="translate(0,0)"/>
<path d="M0 0 C396 0 792 0 1200 0 C1200 33.33 1200 66.66 1200 101 C1192.37479248 101.00410889 1184.74958496 101.00821777 1176.89331055 101.01245117 C1152.43340747 101.02914543 1127.97360398 101.07037732 1103.51376234 101.12685562 C1099.70782439 101.13562129 1095.901886 101.14417129 1092.09594727 101.15258789 C1090.95951296 101.15510648 1090.95951296 101.15510648 1089.80012039 101.15767596 C1077.56858132 101.18427074 1065.33708912 101.19343563 1053.10552409 101.19604143 C1040.53397932 101.19911208 1027.96256901 101.2211865 1015.39108497 101.26052457 C1007.64766905 101.28416729 999.90452236 101.29337824 992.16107545 101.28351311 C986.20104201 101.27751691 980.24138689 101.29809275 974.28141403 101.32806015 C971.85283444 101.33623945 969.42420882 101.33610792 966.99563408 101.32659721 C927.96264534 101.1889883 895.26435435 117.22680511 867.58544922 144.4140625 C859.39259862 152.60943631 851.86408944 161.18668437 844.80859375 170.375 C841.80888919 174.27663916 838.68632413 178.07258544 835.5625 181.875 C830.69484359 187.82180326 826.03093613 193.89091713 821.45385742 200.06323242 C817.53663866 205.32988042 813.47394164 210.4637606 809.35473633 215.57324219 C805.81577474 219.96675466 802.34889008 224.40620831 798.92041016 228.88671875 C795.38608018 233.5045761 791.82216396 238.09885465 788.25 242.6875 C787.65719238 243.44909424 787.06438477 244.21068848 786.45361328 244.99536133 C785.24065319 246.55345805 784.02759914 248.11148163 782.81445312 249.66943359 C779.87486664 253.44517264 776.93749416 257.22263307 774 261 C770.45427972 265.55949384 766.90800104 270.1185484 763.359375 274.67578125 C756.54477826 283.42889475 749.73606889 292.18620456 743 301 C742.37480469 301.67289062 741.74960937 302.34578125 741.10546875 303.0390625 C739.72204515 304.98462949 739.72204515 304.98462949 740.515625 307.36328125 C742.31289873 310.55580695 744.44187614 313.35808112 746.75 316.1875 C747.74544419 317.43046728 748.74020203 318.67398446 749.734375 319.91796875 C750.52811523 320.90676025 750.52811523 320.90676025 751.33789062 321.91552734 C754.26151563 325.5820829 757.12733869 329.29347987 760 333 C764.15147729 338.34539187 768.31307179 343.68232954 772.5 349 C779.64596467 358.07784108 786.72424735 367.20835724 793.81152344 376.33203125 C795.60321008 378.63825851 797.39522023 380.94423367 799.1875 383.25 C799.76959229 383.99886475 800.35168457 384.74772949 800.95141602 385.51928711 C804.08378567 389.54611497 807.22473714 393.56587456 810.38134766 397.57373047 C811.72446523 399.28006 813.06351899 400.98952015 814.40234375 402.69921875 C816.14729209 404.92526019 817.91265626 407.1329315 819.69140625 409.33203125 C827.41068833 418.95767747 834.16372008 427.95723553 833.44140625 440.8359375 C831.81260248 452.51143356 826.0670969 460.17108614 816.9375 467.4375 C807.7040558 472.34890649 798.62344162 473.74992627 788.3125 471.0625 C776.85228085 466.4992491 769.24993557 454.45953327 762 445 C761.13442564 443.87866607 760.26855499 442.75756077 759.40234375 441.63671875 C757.7569596 439.5036096 756.11731458 437.36622812 754.48046875 435.2265625 C751.93079209 431.90037045 749.34374637 428.60438237 746.75 425.3125 C740.732446 417.6726083 734.76464423 409.99439749 728.79833984 402.31445312 C726.44674154 399.28795952 724.09372399 396.26257186 721.74023438 393.23754883 C720.58600233 391.7534668 719.43235027 390.26893351 718.27929688 388.78393555 C715.21328032 384.83665576 712.13597648 380.89883301 709.04296875 376.97265625 C708.39779297 376.15087891 707.75261719 375.32910156 707.08789062 374.48242188 C705.84648148 372.90163469 704.6018257 371.32339026 703.35351562 369.74804688 C702.79728516 369.03841797 702.24105469 368.32878906 701.66796875 367.59765625 C701.17578857 366.97383057 700.6836084 366.35000488 700.17651367 365.70727539 C699 364 699 364 698 361 C689.61794321 369.20465876 682.57944527 378.4597498 675.60766602 387.85791016 C671.63909932 393.19282935 667.52835842 398.39638063 663.35546875 403.57226562 C659.81633 407.9661572 656.34913763 412.40588479 652.92041016 416.88671875 C648.79874112 422.27197699 644.63795237 427.62638307 640.46679688 432.97338867 C637.38454169 436.92597187 634.31607299 440.88790575 631.2734375 444.87109375 C630.35643066 446.06569214 630.35643066 446.06569214 629.42089844 447.28442383 C628.26583718 448.78980341 627.11508002 450.29850051 625.96972656 451.8112793 C618.31860135 461.75381724 610.88232618 469.58645208 597.9140625 471.44140625 C587.74578529 471.84656897 579.80218018 468.40334863 572.0390625 461.984375 C565.24448149 455.37202413 560.97539169 447.10818967 560.5625 437.625 C561.10105477 421.35615802 574.62743027 408.50960411 584.13720703 396.37890625 C587.10129643 392.59357374 590.05013499 388.79642021 593 385 C594.16658772 383.4999386 595.33325453 381.99993871 596.5 380.5 C597.0775 379.7575 597.655 379.015 598.25 378.25 C617.5 353.5 617.5 353.5 619.25097656 351.2487793 C620.41443312 349.75288338 621.57784478 348.25695255 622.74121094 346.76098633 C626.31133633 342.1703251 629.88317102 337.58100046 633.45629883 332.99267578 C635.21109026 330.73750487 636.96310979 328.48020246 638.71484375 326.22265625 C640.81929282 323.51183006 642.93622627 320.81173788 645.06640625 318.12109375 C645.53336914 317.52659424 646.00033203 316.93209473 646.48144531 316.31958008 C647.71925262 314.74371425 648.96290747 313.17244635 650.20703125 311.6015625 C651.89445136 309.15314901 652.67317563 307.89629298 653 305 C652.08023915 303.08786772 652.08023915 303.08786772 650.52734375 301.3046875 C649.96402344 300.59747559 649.40070312 299.89026367 648.8203125 299.16162109 C647.88832031 298.02974365 647.88832031 298.02974365 646.9375 296.875 C645.64419649 295.2606848 644.35123781 293.64609329 643.05859375 292.03125 C642.38812012 291.20238281 641.71764648 290.37351562 641.02685547 289.51953125 C637.80138941 285.51003839 634.65259934 281.44184887 631.5 277.375 C630.93788818 276.65425293 630.37577637 275.93350586 629.79663086 275.19091797 C626.14218831 270.50143982 622.55100113 265.76825872 619 261 C620.34716818 258.13746643 621.87773056 255.65713196 623.765625 253.12109375 C624.31895508 252.37424316 624.87228516 251.62739258 625.44238281 250.85791016 C626.03889648 250.0591748 626.63541016 249.26043945 627.25 248.4375 C628.52096847 246.72536073 629.79179783 245.01311817 631.0625 243.30078125 C631.71476563 242.42373535 632.36703125 241.54668945 633.0390625 240.64306641 C635.53265781 237.28205261 638.00764471 233.90759458 640.48242188 230.53271484 C643.31059993 226.68029882 646.1523074 222.83800701 649 219 C649.51175781 218.3095459 650.02351562 217.6190918 650.55078125 216.90771484 C651.94287711 215.03674168 653.34419547 213.17318494 654.75 211.3125 C655.52859375 210.27738281 656.3071875 209.24226562 657.109375 208.17578125 C657.73328125 207.45777344 658.3571875 206.73976562 659 206 C659.66 206 660.32 206 661 206 C662.56264902 207.84092899 664.00592212 209.68539833 665.4375 211.625 C666.34298571 212.82739886 667.2492626 214.02920224 668.15625 215.23046875 C668.86007812 216.16705322 668.86007812 216.16705322 669.578125 217.12255859 C671.82631833 220.09106937 674.1303746 223.01469982 676.4375 225.9375 C677.3542904 227.10016286 678.27095599 228.26292414 679.1875 229.42578125 C679.64640625 230.0079541 680.1053125 230.59012695 680.578125 231.18994141 C682.05803318 233.07387672 683.52981467 234.96393821 685 236.85546875 C685.73778687 237.80208374 685.73778687 237.80208374 686.49047852 238.76782227 C687.42799632 239.9710782 688.36351096 241.17589867 689.29663086 242.38256836 C691.69753477 245.45791913 694.17247034 248.31023861 697 251 C697.35078613 250.54898926 697.70157227 250.09797852 698.06298828 249.63330078 C742.5 192.49999999 742.5 192.49999999 744.25097656 190.2487793 C745.41443312 188.75288338 746.57784478 187.25695255 747.74121094 185.76098633 C750.70661998 181.94790224 753.67287262 178.13547936 756.640625 174.32421875 C763.82763036 165.09652278 763.82763036 165.09652278 770.97119141 155.83520508 C772.17297059 154.26893606 773.37748482 152.70476685 774.58203125 151.140625 C775.82318654 149.52852669 777.06399621 147.91614788 778.29833984 146.29882812 C787.40390244 134.3795437 797.36943317 123.57145576 807.9375 112.9375 C808.56430664 112.30593994 809.19111328 111.67437988 809.83691406 111.02368164 C810.73555176 110.12830688 810.73555176 110.12830688 811.65234375 109.21484375 C812.17820068 108.69011475 812.70405762 108.16538574 813.24584961 107.62475586 C815.39533016 105.63383128 817.71216801 103.83026559 820 102 C549.73 101.67 279.46 101.34 1 101 C1 235.31 1 369.62 1 508 C39.878125 507.938125 78.75625 507.87625 118.8125 507.8125 C131.04417236 507.80581299 143.27584473 507.79912598 155.87817383 507.79223633 C166.93606837 507.76232316 166.93606837 507.76232316 177.99394226 507.72587585 C182.88198474 507.70993826 187.76981937 507.70764495 192.65788269 507.71403503 C198.92692751 507.72176502 205.19549466 507.70506754 211.46445215 507.67198312 C213.74389622 507.66387524 216.02338931 507.66376511 218.30282748 507.67339098 C241.34648113 507.76142631 263.95148866 504.7603984 285 495 C285.93972656 494.57847656 285.93972656 494.57847656 286.8984375 494.1484375 C295.96563039 490.05481033 304.05727156 484.92407843 312 479 C312.85464844 478.3709375 313.70929688 477.741875 314.58984375 477.09375 C327.17315734 467.32180848 338.99348756 455.41250208 348.78125 442.84765625 C351.12236272 439.84295348 353.54891189 436.9234405 355.98974609 433.99975586 C361.75711337 427.07906962 367.3104993 420.04183926 372.67553711 412.80541992 C376.71973543 407.35109562 380.88782808 402.00660709 385.09765625 396.6796875 C388.35814846 392.55370737 391.58604735 388.40262178 394.8125 384.25 C395.69591064 383.11328857 395.69591064 383.11328857 396.59716797 381.95361328 C397.79876492 380.40730392 399.00026177 378.86091676 400.20166016 377.31445312 C403.13299363 373.54184366 406.06659198 369.77099645 409 366 C410.16667794 364.50000877 411.3333446 363.00000876 412.5 361.5 C433.5 334.5 433.5 334.5 435.25341797 332.24658203 C436.40995618 330.75895768 437.56524775 329.27036324 438.71923828 327.78076172 C441.78090207 323.83221144 444.86774467 319.90693558 447.9921875 316.0078125 C448.641875 315.19054687 449.2915625 314.37328125 449.9609375 313.53125 C451.21089961 311.95986906 452.46841132 310.39445581 453.734375 308.8359375 C454.57355469 307.77632813 454.57355469 307.77632813 455.4296875 306.6953125 C455.92710449 306.07672363 456.42452148 305.45813477 456.93701172 304.82080078 C458.33611559 302.77566143 458.33611559 302.77566143 458 299 C456.27865902 296.56587006 454.54236705 294.33203061 452.625 292.0625 C451.50937081 290.70658901 450.3948027 289.34980434 449.28125 287.9921875 C448.44400391 286.97850098 448.44400391 286.97850098 447.58984375 285.94433594 C445.37473228 283.23531447 443.24841521 280.46917393 441.125 277.6875 C440.31414477 276.62734198 439.50293502 275.56745503 438.69140625 274.5078125 C438.26617676 273.95254883 437.84094727 273.39728516 437.40283203 272.82519531 C430.06051389 263.27225928 422.62949862 253.78688427 415.17724609 244.31958008 C409.68925881 237.34256539 404.24833518 230.32895486 398.80273438 223.31884766 C396.43486255 220.27306669 394.06256509 217.23074697 391.69018555 214.18847656 C389.94731614 211.95010689 388.20972837 209.70771401 386.47265625 207.46484375 C384.12746767 204.43898657 381.75749956 201.43484081 379.37109375 198.44140625 C368.3183108 184.465347 368.3183108 184.465347 366 176 C365.67 175.01 365.34 174.02 365 173 C363.79797092 163.95043825 366.56235366 156.20009447 371.5390625 148.671875 C377.13724994 141.72057116 385.16782283 136.54950477 394 135 C404.41342963 134.12558988 412.51920475 135.95795472 420.63671875 142.6875 C425.08281287 147.03805822 428.73967852 152.00180653 432.46386719 156.96533203 C435.20331371 160.59383606 438.01442734 164.16665304 440.8125 167.75 C442.00696045 169.2861085 443.20096709 170.82256998 444.39453125 172.359375 C447.92792158 176.90762454 451.46372293 181.45399474 455 186 C456.16667794 187.49999123 457.3333446 188.99999124 458.5 190.5 C459.36625 191.61375 459.36625 191.61375 460.25 192.75 C465.5 199.5 465.5 199.5 467.25073242 201.75097656 C468.41491259 203.24775643 469.5791377 204.74450134 470.7434082 206.24121094 C473.69849173 210.04019058 476.65274014 213.83981465 479.60546875 217.640625 C486.70902136 226.78257161 493.83562514 235.90563028 501 245 C504.21911882 243.92696039 504.64204863 243.5038629 506.53125 240.89453125 C507.2435376 239.92507568 507.2435376 239.92507568 507.97021484 238.93603516 C508.47504395 238.23526855 508.97987305 237.53450195 509.5 236.8125 C510.5845962 235.33625319 511.6705592 233.86100971 512.7578125 232.38671875 C513.3034082 231.64470215 513.84900391 230.90268555 514.41113281 230.13818359 C516.67685732 227.08913392 519.01608672 224.10221392 521.375 221.125 C522.28268724 219.97666932 523.190236 218.82822917 524.09765625 217.6796875 C524.56445801 217.08897461 525.03125977 216.49826172 525.51220703 215.88964844 C528.2948148 212.35545347 531.05270003 208.80201415 533.8125 205.25 C534.40144043 204.49219238 534.99038086 203.73438477 535.59716797 202.95361328 C536.79876492 201.40730392 538.00026177 199.86091676 539.20166016 198.31445312 C542.13299364 194.54184364 545.06662028 190.77101849 548 187 C548.57435791 186.26144775 549.14871582 185.52289551 549.74047852 184.76196289 C552.70610866 180.94853535 555.67262266 177.13580037 558.640625 173.32421875 C559.2392334 172.55505127 559.8378418 171.78588379 560.45458984 170.9934082 C561.64146274 169.46906574 562.82927244 167.94545217 564.01806641 166.42260742 C566.65008986 163.04629752 569.26540885 159.66171173 571.8203125 156.2265625 C579.39253213 146.06787684 586.52388934 137.65248174 599.625 135.5859375 C609.38322546 135.04696575 618.56924706 138.55437418 626 144.8125 C633.32172876 151.95958202 636.92873692 159.39174194 637.4375 169.6875 C637.03774134 183.7485762 628.3543129 193.24419744 619.89501953 203.65332031 C616.87510399 207.39300444 613.94086733 211.19807726 611 215 C609.83377322 216.50034203 608.66710568 218.00034156 607.5 219.5 C606.9225 220.2425 606.345 220.985 605.75 221.75 C586.5 246.5 586.5 246.5 584.74902344 248.7512207 C583.58556688 250.24711662 582.42215522 251.74304745 581.25878906 253.23901367 C578.29338002 257.05209776 575.32712738 260.86452064 572.359375 264.67578125 C566.28341428 272.48025508 560.22250374 280.29542075 554.19921875 288.140625 C551.14903333 292.10640782 548.07794787 296.0557423 545 300 C546.30470691 302.77050284 547.75267214 305.15540487 549.6171875 307.58203125 C550.13587402 308.25943359 550.65456055 308.93683594 551.18896484 309.63476562 C551.74535645 310.35341797 552.30174805 311.07207031 552.875 311.8125 C553.45072754 312.56080078 554.02645508 313.30910156 554.61962891 314.08007812 C558.489171 319.09282191 562.4141383 324.05922276 566.375 329 C566.8687915 329.61834717 567.36258301 330.23669434 567.87133789 330.8737793 C569.99733902 333.53065215 572.13809742 336.1627659 574.33984375 338.7578125 C575.31630859 339.92957031 575.31630859 339.92957031 576.3125 341.125 C576.86550781 341.76695312 577.41851563 342.40890625 577.98828125 343.0703125 C579 345 579 345 579.0234375 347.265625 C577.51407037 351.29828528 574.98945909 354.28557286 572.3125 357.625 C571.12211322 359.14459328 569.93336933 360.66547467 568.74609375 362.1875 C568.12847168 362.97640625 567.51084961 363.7653125 566.87451172 364.578125 C563.80570867 368.54302813 560.83921179 372.58162279 557.875 376.625 C557.29709717 377.41189209 556.71919434 378.19878418 556.1237793 379.00952148 C554.4144376 381.33864702 552.70713477 383.66925662 551 386 C549.89078475 387.51183597 548.78141396 389.02355784 547.671875 390.53515625 C545.11282513 394.02215168 542.55576599 397.51059705 540 401 C535.73425247 399.45601713 533.56641788 396.24766948 530.9375 392.75 C529.957233 391.47380334 528.9767585 390.19776605 527.99609375 388.921875 C527.49835449 388.26896484 527.00061523 387.61605469 526.48779297 386.94335938 C524.18780852 383.9391132 521.84281013 380.97087546 519.5 378 C518.59757387 376.84902292 517.69523066 375.69798082 516.79296875 374.546875 C514.82955859 372.0465894 512.85048952 369.55953267 510.86328125 367.078125 C510.3528125 366.43746094 509.84234375 365.79679687 509.31640625 365.13671875 C508.33205485 363.90180518 507.34391144 362.6699024 506.3515625 361.44140625 C503 357.2249244 503 357.2249244 503 355 C502.34 355 501.68 355 501 355 C500.57920166 355.88594849 500.57920166 355.88594849 500.14990234 356.78979492 C499.09492329 358.81754978 497.97094086 360.53947726 496.6015625 362.36328125 C496.12831543 362.99516357 495.65506836 363.6270459 495.16748047 364.27807617 C494.65846191 364.94943604 494.14944336 365.6207959 493.625 366.3125 C493.09406738 367.01673096 492.56313477 367.72096191 492.01611328 368.4465332 C487.88723769 373.89511571 483.64725951 379.24804289 479.35742188 384.5703125 C475.81715956 388.96448424 472.3496946 393.40515691 468.92041016 397.88671875 C465.38607996 402.50457638 461.82213119 407.09882887 458.25 411.6875 C457.66009277 412.44546875 457.07018555 413.2034375 456.46240234 413.984375 C454.0313747 417.10744701 451.59965213 420.22997762 449.16796875 423.35253906 C447.36167627 425.67229048 445.55570376 427.99229029 443.75 430.3125 C443.16468506 431.0645874 442.57937012 431.8166748 441.97631836 432.59155273 C438.57386835 436.96668 435.18577122 441.35234917 431.8125 445.75 C420.3879719 460.62061526 408.89027853 475.35990994 396 489 C395.16339844 489.89074219 394.32679688 490.78148437 393.46484375 491.69921875 C392.65144531 492.54097656 391.83804687 493.38273437 391 494.25 C390.29875 494.97703125 389.5975 495.7040625 388.875 496.453125 C384.52641511 500.30540401 379.69834907 503.58301886 375 507 C783.375 507.495 783.375 507.495 1200 508 C1200 541.33 1200 574.66 1200 609 C804 609 408 609 0 609 C0 408.03 0 207.06 0 0 Z " fill="#FEFEFD" transform="translate(0,0)"/>
<path d="M0 0 C1.18980469 0.18304688 2.37960938 0.36609375 3.60546875 0.5546875 C32.61463336 5.59164856 59.92880726 19.76837592 82 39 C83.44632812 40.24523437 83.44632812 40.24523437 84.921875 41.515625 C116.18506876 68.9465235 136.84945636 109.70188284 139.71484375 151.25 C140.73633747 169.93249605 140.70241864 187.81010781 136 206 C135.68651611 207.23556641 135.68651611 207.23556641 135.36669922 208.49609375 C127.7103184 237.90577228 113.85391398 262.98563909 93 285 C92.11957031 285.94488281 91.23914063 286.88976562 90.33203125 287.86328125 C68.52965735 310.79342874 39.57755554 325.62019707 9 333 C8.33935547 333.16371094 7.67871094 333.32742188 6.99804688 333.49609375 C-14.87013753 338.62907205 -42.24107459 338.57349524 -64 333 C-64.69996094 332.82307617 -65.39992187 332.64615234 -66.12109375 332.46386719 C-110.10274605 321.11566011 -148.07718992 293.49529595 -171.48828125 254.4140625 C-194.23719082 215.14394641 -201.5837828 168.11298289 -190.05004883 123.95629883 C-182.83019769 98.0762035 -170.40858587 73.88133459 -152.01953125 54.171875 C-150.24915862 52.26795395 -148.58614232 50.32108849 -146.9375 48.3125 C-134.79695077 34.06152086 -117.56006075 23.29804611 -101 15 C-99.92395508 14.45303467 -99.92395508 14.45303467 -98.82617188 13.89501953 C-68.66979615 -1.20367357 -33.12241768 -5.62120515 0 0 Z " fill="#FEFEFE" transform="translate(227,136)"/>
<path d="M0 0 C0.721875 0.26683594 1.44375 0.53367188 2.1875 0.80859375 C23.00429396 8.57771864 41.57052783 20.12826408 57.53222656 35.58349609 C59.00492724 37.00475513 60.49742498 38.40278442 61.9921875 39.80078125 C93.91662561 70.12329481 110.18066253 113.41520791 111.33203125 156.88623047 C111.96609952 203.75684488 93.24810781 246.54635545 61 280 C60.33742188 280.71414063 59.67484375 281.42828125 58.9921875 282.1640625 C32.33129599 310.16357617 -9.58770234 327.36482662 -47.86328125 328.34375 C-51.03390714 328.3990294 -54.20394706 328.42378101 -57.375 328.4375 C-58.12459991 328.44385468 -58.87419983 328.45020935 -59.64651489 328.45675659 C-70.73180484 328.51524655 -81.15614461 327.26768606 -92 325 C-92.9163623 324.81203857 -93.83272461 324.62407715 -94.77685547 324.43041992 C-125.52431165 317.74009183 -152.55158661 301.47739762 -174.62109375 279.375 C-175.97930972 278.01901427 -177.35562987 276.67946518 -178.78125 275.39453125 C-199.41746873 256.39982992 -213.23981149 226.86710881 -220 200 C-220.19609863 199.22930176 -220.39219727 198.45860352 -220.59423828 197.66455078 C-226.99927771 171.13836542 -226.41346185 141.20005717 -219 115 C-218.73767578 114.06784668 -218.47535156 113.13569336 -218.20507812 112.17529297 C-214.70649813 100.12952262 -210.03648838 88.97909565 -204 78 C-203.45859375 76.98035156 -202.9171875 75.96070313 -202.359375 74.91015625 C-181.86740366 37.85549934 -146.17696263 9.76942223 -106 -3 C-104.33130859 -3.53947266 -104.33130859 -3.53947266 -102.62890625 -4.08984375 C-69.4955678 -13.8783997 -32.21281569 -12.24086996 0 0 Z " fill="#FEFDFE" transform="translate(1055,144)"/>
<path d="M0 0 C395.67 0 791.34 0 1199 0 C1199 22.77 1199 45.54 1199 69 C803 69 407 69 -1 69 C-1 6 -1 6 0 0 Z " fill="#FAB10F" transform="translate(1,540)"/>
<path d="M0 0 C396 0 792 0 1200 0 C1200 22.77 1200 45.54 1200 69 C804.33 69 408.66 69 1 69 C-2.25303277 46.22877059 0 23.00241533 0 0 Z " fill="#FBB110" transform="translate(0,0)"/>
<path d="M0 0 C4.61396122 3.71479123 8.84473378 7.78545752 13 12 C13.73734375 12.72703125 14.4746875 13.4540625 15.234375 14.203125 C34.43592815 34.3263527 41.62757484 60.94147833 41.2109375 88.12109375 C40.34420986 115.38021311 26.66609022 140.26130534 7.1875 158.75 C-1.69193885 166.41732497 -11.98461144 172.93890494 -23 177 C-24.02432129 177.38913574 -24.02432129 177.38913574 -25.06933594 177.78613281 C-48.80796379 186.53300504 -76.24646935 185.84303112 -99.4609375 175.66796875 C-108.40740469 171.45147704 -116.44311417 166.36861226 -124 160 C-125.21816406 159.00033203 -125.21816406 159.00033203 -126.4609375 157.98046875 C-144.61697522 142.47800577 -156.72668325 118.69180415 -159.79296875 95.00390625 C-161.89389458 64.52066169 -153.90387468 37.26151919 -134 14 C-127.97126116 7.30453147 -121.62901536 1.78448249 -114 -3 C-112.97390625 -3.65871094 -111.9478125 -4.31742188 -110.890625 -4.99609375 C-76.93640057 -25.68939412 -32.07396176 -23.86044513 0 0 Z " fill="#E70020" transform="translate(259,221)"/>
<path d="M0 0 C15.3312959 -0.38609769 28.47034706 2.9034854 42.34765625 9.15625 C43.26289062 9.5584375 44.178125 9.960625 45.12109375 10.375 C68.53374671 21.30582851 85.67812168 42.25307948 95.22265625 65.84375 C99.30889271 77.54437658 100.90008921 88.61646239 100.78515625 100.96875 C100.78178253 101.67346436 100.77840881 102.37817871 100.77493286 103.10424805 C100.70203526 113.61462137 100.15847628 123.24811791 96.34765625 133.15625 C96.09564453 133.81431641 95.84363281 134.47238281 95.58398438 135.15039062 C90.27233496 148.7415895 83.60196776 160.64850494 73.34765625 171.15625 C72.52265625 172.0225 71.69765625 172.88875 70.84765625 173.78125 C70.02265625 174.565 69.19765625 175.34875 68.34765625 176.15625 C67.76242187 176.73632812 67.1771875 177.31640625 66.57421875 177.9140625 C55.73191505 188.19208274 42.56940279 194.85348725 28.34765625 199.15625 C27.46698486 199.42622803 26.58631348 199.69620605 25.67895508 199.97436523 C17.84118475 202.17117343 10.52089565 202.57985602 2.41015625 202.46875 C1.23775391 202.47197266 0.06535156 202.47519531 -1.14257812 202.47851562 C-28.36787112 202.31314941 -51.6840312 191.49118348 -71.33984375 172.90625 C-92.10785854 151.14928212 -100.30825575 123.62277209 -99.9296875 94.06640625 C-99.67194282 86.07632102 -98.13765874 78.7321757 -95.65234375 71.15625 C-95.44335449 70.5178418 -95.23436523 69.87943359 -95.01904297 69.22167969 C-89.69784321 53.57296789 -81.20432067 40.85040509 -69.65234375 29.15625 C-69.08257813 28.51429688 -68.5128125 27.87234375 -67.92578125 27.2109375 C-54.25648609 12.13966335 -30.67006229 2.06358577 -10.71484375 0.40625 C-7.14346995 0.24699141 -3.57166938 0.15279869 0 0 Z " fill="#E70020" transform="translate(997.65234375,201.84375)"/>
<path d="M0 0 C0.33 0 0.66 0 1 0 C1.15855469 1.01578125 1.31710938 2.0315625 1.48046875 3.078125 C3.6887666 16.42888147 7.62255956 27.18307916 16 38 C16.65548828 38.92039062 16.65548828 38.92039062 17.32421875 39.859375 C26.4770166 51.84321843 42.86575544 59.36178174 57.48828125 61.3359375 C59.65739703 61.58557135 61.82505733 61.8086856 64 62 C64 62.33 64 62.66 64 63 C42.88 63 21.76 63 0 63 C0 42.21 0 21.42 0 0 Z " fill="#000000" transform="translate(0,546)"/>
<path d="M0 0 C0.33 0 0.66 0 1 0 C1 18.48 1 36.96 1 56 C-19.79 56 -40.58 56 -62 56 C-62 55.67 -62 55.34 -62 55 C-61.14019531 54.91363281 -60.28039063 54.82726562 -59.39453125 54.73828125 C-45.99632403 53.14569173 -35.01639274 48.89419447 -24 41 C-23.35417969 40.53980469 -22.70835938 40.07960938 -22.04296875 39.60546875 C-9.84508125 30.05091579 -2.9939546 14.81219646 0 0 Z " fill="#000000" transform="translate(1199,553)"/>
<path d="M0 0 C18.15 0 36.3 0 55 0 C51.46762585 1.76618708 48.17646571 2.96345871 44.4375 4.1875 C37.57672704 6.61691182 31.86012337 9.70755294 26 14 C25.29359375 14.51046875 24.5871875 15.0209375 23.859375 15.546875 C9.29203385 27.13192583 3.7575082 44.33401251 1 62 C0.67 62 0.34 62 0 62 C0 41.54 0 21.08 0 0 Z " fill="#000000" transform="translate(0,0)"/>
<path d="M0 0 C18.15 0 36.3 0 55 0 C55 18.15 55 36.3 55 55 C54.67 55 54.34 55 54 55 C53.82984375 54.31035156 53.6596875 53.62070312 53.484375 52.91015625 C48.8108193 34.78769824 39.57282366 19.94530216 23.625 9.625 C16.15746424 5.25569716 8.48385355 2.58303789 0 1 C0 0.67 0 0.34 0 0 Z " fill="#000000" transform="translate(1145,0)"/>
</svg>
